<?xml version="1.0" encoding="UTF-8"?>
<!DOCTYPE svg PUBLIC "-//W3C//DTD SVG 1.1//EN" "http://www.w3.org/Graphics/SVG/1.1/DTD/svg11.dtd">
<!-- Creator: CorelDRAW 2019 (64-Bit) -->
<svg xmlns="http://www.w3.org/2000/svg" xml:space="preserve" width="452px" height="186px" version="1.1" style="shape-rendering:geometricPrecision; text-rendering:geometricPrecision; image-rendering:optimizeQuality; fill-rule:evenodd; clip-rule:evenodd"
viewBox="0 0 452 186.29"
 xmlns:xlink="http://www.w3.org/1999/xlink"
 xmlns:xodm="http://www.corel.com/coreldraw/odm/2003"
 enable-background="new 0 0 200 140">
 <defs>
  <style type="text/css">
   <![CDATA[
    .fil0 {fill:#EB1C24}
    .fil1 {fill:#FDFDFD}
   ]]>
  </style>
 </defs>
 <g id="Warstwa_x0020_1">
  <metadata id="CorelCorpID_0Corel-Layer"/>
  <g id="_1864726482416">
   <polygon class="fil0" points="-0.94,186.42 123.08,187.14 123.37,0.85 -0.99,1.14 "/>
   <path class="fil0" d="M264.61 135.03l1.12 8.51 16.58 0.25 0.13 -81.94c-35.26,-12.62 -73.27,-3.46 -76.66,33.48 -4.8,52.33 40.65,61.43 58.83,39.7z"/>
   <path class="fil1" d="M96.39 121.25c-23.8,5.73 -48.69,12.96 -53.18,-16.68l56.55 -0.08c7.93,-64.54 -63.43,-65.53 -74.99,-21.45 -9.83,37.47 11.88,65.76 52.95,60 16.36,-2.29 20.46,-2.66 18.67,-21.79z"/>
   <path class="fil0" d="M371.69 153.97l-2.39 15.69c13.02,7.17 31.22,2.38 39.19,-5.42 6.92,-6.79 12.71,-20.6 17.54,-32.51 7.89,-19.48 21.42,-55.22 24.99,-77.07l-20.38 0.2c-3.43,13.56 -12.38,53.33 -18.06,62.08 -7.08,-9.06 -17.71,-48.21 -21.29,-62.27l-21.11 0.01c7.25,38.13 35.35,82.02 31.22,90.16 -5.97,11.76 -14.78,11.71 -29.71,9.13z"/>
   <path class="fil0" d="M302.92 31.92c-1.3,20.43 -1.93,65.25 0.35,84.98 1.48,12.72 6.29,21.43 16.94,24.91 10.8,3.53 28.24,3.02 35.6,-3.42 2.46,-3.94 2.34,-10.92 2.58,-16.26 -12.16,1.55 -29.35,11.36 -34.44,-4.39 -1.99,-6.14 -2,-38.46 -0.95,-45.79l26.64 -0.33 2.87 -16.89 -29.71 -0.15 -0.24 -25.73 -19.64 3.07z"/>
   <path class="fil0" d="M144.99 58.85l0 82.64 20.12 0.34c0.48,-14.98 -1.9,-59.4 0.88,-70.03 13.92,-2.47 17.89,0.68 28.6,0.38l3.5 -15.98c-18.03,-5.55 -36.59,-2.77 -53.1,2.65z"/>
   <path class="fil1" d="M264.18 125.59l0.08 -51.97c-25.18,-1.94 -40.76,2.04 -40.31,29.69 0.45,27.71 18.61,32.65 40.23,22.28z"/>
   <path class="fil0" d="M43.63 89.73l36.6 -0.02c1.37,-26.42 -33.92,-27.82 -36.6,0.02z"/>
  </g>
 </g>
</svg>
